# xmcd
# Track frame offsets:
# 150
# 24035
# 45435
# 57399
# 78147
# 96330
# 116905
# 144077
# 162660
# 184209
# 217034
# 232691
# 251241
# 268631
# 280590
# 320900
# 341587
#
# Disc length: 4743 seconds
# Revision: 0
# Processed by: cddbd v1.4PL0 Copyright (c) Steve Scherf et al.
# Submitted via: VisiTrax 2.9.5.181 - For more info visit www.synapsa.com
#
DISCID=f1128511
DTITLE=B.B. King - Best 2000
DYEAR=1900
DGENRE=
TTITLE0=Playin' With My Firends
TTITLE1=Since I Met You Baby
TTITLE2=Let The Good Times Roll
TTITLE3=You Shook Me
TTITLE4=Something You Got
TTITLE5=Nobody Knows You When You're Down And Out
TTITLE6=There's Something On Your Mind
TTITLE7=Little By Little
TTITLE8=Early In The Mornin'
TTITLE9=Call It Stormy Monday
TTITLE10=Somebody Done Changed The Lock On My Door
TTITLE11=You're The Boss
TTITLE12=We're Gonna Make It
TTITLE13=It's A Great, Great Pleasure
TTITLE14=I Gotta Move Out Of This Neighborhood/Nobody Loves Me But My Mother
TTITLE15=Everybody's Had The Blues
TTITLE16=Sure Had A Wonderful Time Last Night
EXTD=
EXTT0=
EXTT1=
EXTT2=
EXTT3=
EXTT4=
EXTT5=
EXTT6=
EXTT7=
EXTT8=
EXTT9=
EXTT10=
EXTT11=
EXTT12=
EXTT13=
EXTT14=
EXTT15=
EXTT16=
PLAYORDER=
